<svg width="100" height="100" viewBox="0 0 100 100" fill="none" xmlns="http://www.w3.org/2000/svg">
<path d="M67.4167 81.6667L59.0417 67.1667C63.125 64.1667 65.9583 59.5 66.5417 54.1667H83.3333C82.625 65.6667 76.4583 75.6667 67.4167 81.6667ZM54.1667 29.2917V12.5C72.0833 13.5833 86.4167 27.9167 87.5 45.8333H70.7083C69.75 37.125 62.875 30.25 54.1667 29.2917ZM29.1667 52.0833C29.1667 54.75 29.7083 57.2917 30.75 59.5833L16.25 67.9583C13.8333 63.1667 12.5 57.7917 12.5 52.0833C12.5 33.2083 27.25 17.7917 45.8333 16.6667V33.4583C36.4583 34.5 29.1667 42.4167 29.1667 52.0833ZM47.9167 87.5C35.5417 87.5 24.6667 81.25 18.3333 71.5833L32.8333 63.2083C36.25 67.8333 41.6667 70.8333 47.9167 70.8333C50.5833 70.8333 53.125 70.2917 55.4167 69.25L63.7917 83.75C59 86.1667 53.625 87.5 47.9167 87.5Z" fill="#3C3C3C"/>
</svg>
